<svg id="Group_45466" data-name="Group 45466" xmlns="http://www.w3.org/2000/svg" xmlns:xlink="http://www.w3.org/1999/xlink" width="138.9" height="138.9" viewBox="0 0 138.9 138.9">
  <defs>
    <linearGradient id="linear-gradient" x1="0.5" y1="0.01" x2="0.5" y2="1.002" gradientUnits="objectBoundingBox">
      <stop offset="0" stop-color="#fff"/>
      <stop offset="0.008" stop-color="#f0f6f8"/>
      <stop offset="0.036" stop-color="#c2dce3"/>
      <stop offset="0.05" stop-color="#b1d2db"/>
      <stop offset="0.097" stop-color="#a6a5a3"/>
      <stop offset="0.174" stop-color="#61605f"/>
      <stop offset="0.241" stop-color="#a1aaff"/>
      <stop offset="0.308" stop-color="#fff"/>
      <stop offset="0.404" stop-color="#d1d1d1"/>
      <stop offset="0.527" stop-color="#545352"/>
      <stop offset="0.529" stop-color="#565554"/>
      <stop offset="0.598" stop-color="#9d9d9c"/>
      <stop offset="0.654" stop-color="#d2d2d1"/>
      <stop offset="0.697" stop-color="#f2f2f2"/>
      <stop offset="0.72" stop-color="#fff"/>
      <stop offset="0.738" stop-color="#dfdfdf"/>
      <stop offset="0.764" stop-color="#b9b9b8"/>
      <stop offset="0.79" stop-color="#9a9999"/>
      <stop offset="0.818" stop-color="#818180"/>
      <stop offset="0.847" stop-color="#706f6e"/>
      <stop offset="0.877" stop-color="#666564"/>
      <stop offset="0.914" stop-color="#636261"/>
      <stop offset="1" stop-color="#292928"/>
    </linearGradient>
    <linearGradient id="linear-gradient-2" x1="0.5" y1="0.015" x2="0.5" y2="0.98" gradientUnits="objectBoundingBox">
      <stop offset="0.002" stop-color="#171224"/>
      <stop offset="0.4" stop-color="#281c2a"/>
      <stop offset="1" stop-color="#402a33"/>
    </linearGradient>
  </defs>
  <path id="Path_107864" data-name="Path 107864" d="M573.7,347.464a69.449,69.449,0,1,0,66.969,71.844A69.449,69.449,0,0,0,573.7,347.464ZM570.929,426.4a9.532,9.532,0,1,1,9.861-9.192A9.532,9.532,0,0,1,570.929,426.4Z" transform="translate(-501.814 -347.421)" fill="url(#linear-gradient)"/>
  <path id="Path_107865" data-name="Path 107865" d="M577.455,491.893a66.537,66.537,0,1,1,47.7-17.825A66.1,66.1,0,0,1,577.455,491.893Zm2.772-78.933a12.445,12.445,0,1,0,12,12.874A12.459,12.459,0,0,0,580.227,412.96Z" transform="translate(-510.341 -355.947)" fill="url(#linear-gradient-2)"/>
  <g id="Group_45471" data-name="Group 45471" transform="translate(3.987 3.987)">
    <path id="Path_107866" data-name="Path 107866" d="M526.621,347.436a23.966,23.966,0,1,0,23.11,24.792A23.966,23.966,0,0,0,526.621,347.436Zm-.957,27.238a3.289,3.289,0,1,1,3.4-3.172A3.289,3.289,0,0,1,525.664,374.674Z" transform="translate(-460.317 -305.924)" fill="url(#linear-gradient)"/>
    <g id="Group_45470" data-name="Group 45470" transform="translate(44.495 44.495)">
      <circle id="Ellipse_17569" data-name="Ellipse 17569" cx="20.968" cy="20.968" r="20.968" transform="translate(0 0)"/>
      <g id="_1024" data-name="ቤተ  መዝሙር 1024" transform="translate(6.534 10.354)">
        <g id="Group_45109" data-name="Group 45109" transform="translate(1.336 -0.404)">
          <g id="Group_44768" data-name="Group 44768">
            <g id="Group_43839" data-name="Group 43839">
              <g id="Group_43836" data-name="Group 43836">
                <g id="Group_43835" data-name="Group 43835">
                  <path id="Path_107538" data-name="Path 107538" d="M15.195,1.359.359,9.13l-.01-.016A2.211,2.211,0,0,1,.02,8.226a2.152,2.152,0,0,1,.069-.9,2.278,2.278,0,0,1,.437-.812A2.528,2.528,0,0,1,1.3,5.892L12.057.257a2.254,2.254,0,0,1,.794-.242,2.322,2.322,0,0,1,.807.051,2.206,2.206,0,0,1,.727.322,1.98,1.98,0,0,1,.554.571Z" transform="translate(0 0.043)" fill="#cf7214"/>
                  <path id="Path_107539" data-name="Path 107539" d="M3.579.335,15.313,6.807h0a2.531,2.531,0,0,1-.688.744,2.677,2.677,0,0,1-.9.42,2.751,2.751,0,0,1-1,.067,2.706,2.706,0,0,1-.987-.315L0,1.25H0A2.541,2.541,0,0,1,.689.506a2.682,2.682,0,0,1,.9-.42,2.744,2.744,0,0,1,1-.067A2.693,2.693,0,0,1,3.579.335Z" transform="translate(10.885)" fill="#f90"/>
                  <path id="Path_107540" data-name="Path 107540" d="M3.542,2.237s-.158-.093-.411-.225-.6-.3-.98-.452a5.737,5.737,0,0,0-1.17-.347A1.559,1.559,0,0,0,0,1.3s.131-.087.332-.216.472-.3.75-.469.566-.334.8-.451A1,1,0,0,1,2.359,0Z" transform="translate(9.698 0.308)" fill="#f90"/>
                </g>
                <g id="Group_45107" data-name="Group 45107" transform="translate(0.018 8.081)">
                  <path id="Path_107537" data-name="Path 107537" d="M5.814,11.3a1.947,1.947,0,0,1,0,.4q-.011.1-.032.194t-.051.19a2.267,2.267,0,0,1-.357.675,2.771,2.771,0,0,1-.58.562,3.24,3.24,0,0,1-.761.407,3.567,3.567,0,0,1-.9.209,3.508,3.508,0,0,1-1.148-.07,3.014,3.014,0,0,1-.97-.409,2.374,2.374,0,0,1-.692-.682,1.944,1.944,0,0,1-.312-.888Q0,11.833,0,11.78t0-.106q0-.053.005-.106t.011-.1a2.1,2.1,0,0,1,.277-.8A2.6,2.6,0,0,1,.871,9.99a3.159,3.159,0,0,1,.82-.492,3.565,3.565,0,0,1,1-.25,3.485,3.485,0,0,1,.373-.019,3.449,3.449,0,0,1,.364.02,3.352,3.352,0,0,1,.351.057,3.185,3.185,0,0,1,.334.091V.939L5.822,0l0,3.288v7.948a.018.018,0,0,1,0,.008l0,.016c0,.006,0,.013,0,.02A.1.1,0,0,0,5.814,11.3Z" fill="#f90"/>
                  <path id="Path_107542" data-name="Path 107542" d="M5.726.892a2.267,2.267,0,0,1-.357.675,2.771,2.771,0,0,1-.58.562,3.24,3.24,0,0,1-.761.407,3.567,3.567,0,0,1-.9.209,3.508,3.508,0,0,1-1.148-.07,3.014,3.014,0,0,1-.97-.409,2.374,2.374,0,0,1-.692-.682A1.944,1.944,0,0,1,.009.7Q0,.642,0,.589T0,.483Q0,.43.006.377t.011-.1Q.26.206.513.155T1.027.07q.261-.034.528-.052T2.1,0a8.2,8.2,0,0,1,1,.061,7.812,7.812,0,0,1,.947.175,7.31,7.31,0,0,1,.881.28A6.686,6.686,0,0,1,5.726.892Z" transform="translate(0 11.191)" fill="#cf7214"/>
                </g>
                <g id="Group_45108" data-name="Group 45108" transform="translate(16.599 7.95)">
                  <path id="Path_107541" data-name="Path 107541" d="M5.813,11.43a1.957,1.957,0,0,1-.046.637,2.024,2.024,0,0,1-.06.2,2.3,2.3,0,0,1-.366.655,2.8,2.8,0,0,1-.579.545,3.255,3.255,0,0,1-.751.394,3.571,3.571,0,0,1-.882.2A3.5,3.5,0,0,1,1.983,14a3.014,3.014,0,0,1-.97-.409,2.378,2.378,0,0,1-.692-.682,1.949,1.949,0,0,1-.313-.888,1.983,1.983,0,0,1,.144-.936A2.429,2.429,0,0,1,.7,10.273a3.061,3.061,0,0,1,.875-.6,3.531,3.531,0,0,1,1.113-.3l.084-.007.084-.006.083,0h.082q.144,0,.285.009t.278.031q.137.021.269.053t.259.073l.006-4.237L4.13,0,5.824.79l0,2.632V11.37s0,0,0,0a.132.132,0,0,0,0,.015.18.18,0,0,0,0,.02A.1.1,0,0,0,5.813,11.43Z" fill="#f90"/>
                  <path id="Path_107543" data-name="Path 107543" d="M2.682,7.884a3.088,3.088,0,0,1-.923-.366,3.482,3.482,0,0,1-.783-.64,3.956,3.956,0,0,1-.6-.864A4.348,4.348,0,0,1,0,4.975q.144,0,.285.009t.278.031q.137.021.269.053t.259.073L1.1.9A3.528,3.528,0,0,1,1.471.581,3.309,3.309,0,0,1,1.881.32a3.129,3.129,0,0,1,.442-.2A3.015,3.015,0,0,1,2.792,0V6.987s0,.009,0,.016,0,.013,0,.02a.106.106,0,0,0,0,.02A1.886,1.886,0,0,1,2.8,7.26a1.9,1.9,0,0,1-.016.213,1.967,1.967,0,0,1-.039.208A2.067,2.067,0,0,1,2.682,7.884Z" transform="translate(3.025 4.386)" fill="#cf7214"/>
                </g>
              </g>
              <g id="Group_43841" data-name="Group 43841" transform="translate(7.177 6.529)">
                <path id="Path_107544" data-name="Path 107544" d="M3.016,0V1.193L2.2,1.313V.834L0,.844V0Z" transform="translate(7.125 4.256)" fill="#cf7214"/>
                <path id="Path_107545" data-name="Path 107545" d="M3.016,0V1.352H0V.426l2.111.01v-.4Z" transform="translate(7.125 6.365)" fill="#cf7214"/>
                <path id="Path_107546" data-name="Path 107546" d="M6.033,3.461H0V0H6.006l.008.85L.949.875V2.508l5.078.021Z" transform="translate(0 4.256)" fill="#cf7214"/>
                <g id="Group_43838" data-name="Group 43838" transform="translate(3.561)">
                  <g id="Group_43837" data-name="Group 43837">
                    <path id="Path_107547" data-name="Path 107547" transform="translate(3.66)" fill="#f90"/>
                    <path id="Path_107548" data-name="Path 107548" d="M.971,0V.844L.008.85,0,0Z" transform="translate(2.69 4.256)" fill="#f90"/>
                    <path id="Path_107549" data-name="Path 107549" d="M0,0,.949.006V.932H.008Z" transform="translate(2.711 6.785)" fill="#f90"/>
                    <path id="Path_107550" data-name="Path 107550" d="M3.66,0V13.444L0,15.077V7.717H.947L.9,13.684l1.854-.8-.037-5.17-.008-.932L2.7,5.106l-.008-.85L2.67,1.473.947,2.307V4.256H0V1.791Z" fill="#f90"/>
                  </g>
                </g>
              </g>
            </g>
          </g>
        </g>
      </g>
    </g>
  </g>
</svg>
