<svg xmlns="http://www.w3.org/2000/svg" width="38.535" height="38.535" viewBox="0 0 38.535 38.535">
  <g id="album" opacity="0.5">
    <path id="Path_3" data-name="Path 3" d="M0,0H38.535V38.535H0Z" transform="translate(0 0)" fill="none"/>
    <path id="Path_4" data-name="Path 4" d="M18.056,2A16.056,16.056,0,1,0,34.112,18.056,16.062,16.062,0,0,0,18.056,2Zm0,28.9A12.845,12.845,0,1,1,30.9,18.056,12.862,12.862,0,0,1,18.056,30.9Zm0-20.07a7.225,7.225,0,1,0,7.225,7.225A7.216,7.216,0,0,0,18.056,10.831Zm0,8.831a1.606,1.606,0,1,1,1.606-1.606A1.61,1.61,0,0,1,18.056,19.662Z" transform="translate(1.211 1.211)"/>
  </g>
</svg>
