<svg xmlns="http://www.w3.org/2000/svg" xmlns:xlink="http://www.w3.org/1999/xlink" width="76.097" height="77.835" viewBox="0 0 76.097 77.835"><defs><filter id="a" x="8.197" y="15.066" width="53.703" height="53.703" filterUnits="userSpaceOnUse"><feOffset dx="-3" dy="3" input="SourceAlpha"/><feGaussianBlur stdDeviation="3" result="b"/><feFlood flood-opacity="0.149"/><feComposite operator="in" in2="b"/></filter><filter id="c" x="8.197" y="15.066" width="53.703" height="53.703" filterUnits="userSpaceOnUse"><feOffset dx="-3" dy="3" input="SourceAlpha"/><feGaussianBlur stdDeviation="3" result="d"/><feFlood flood-opacity="0.149" result="e"/><feComposite operator="out" in="SourceGraphic" in2="d"/><feComposite operator="in" in="e"/><feComposite operator="in" in2="SourceGraphic"/></filter></defs><g transform="translate(0.5 0.5)"><g transform="translate(0 0)"><rect width="75.097" height="76.835" rx="5" transform="translate(0 0)" fill="#fafafa" stroke="#f3f3f3" stroke-width="1"/><g transform="translate(19.697 20.566)"><g data-type="innerShadowGroup"><g transform="matrix(1, 0, 0, 1, -20.2, -21.07)" filter="url(#a)"><g transform="translate(20.2 21.07)" fill="#f5f5f5" stroke="#f90" stroke-width="4"><ellipse cx="17.851" cy="17.851" rx="17.851" ry="17.851" stroke="none"/><ellipse cx="17.851" cy="17.851" rx="15.851" ry="15.851" fill="none"/></g></g><ellipse cx="17.851" cy="17.851" rx="17.851" ry="17.851" transform="translate(0 0)" fill="#f5f5f5"/><g transform="matrix(1, 0, 0, 1, -20.2, -21.07)" filter="url(#c)"><ellipse cx="17.851" cy="17.851" rx="17.851" ry="17.851" transform="translate(20.2 21.07)" fill="#fff"/></g><g transform="translate(0 0)" fill="none" stroke="#f90" stroke-width="4"><ellipse cx="17.851" cy="17.851" rx="17.851" ry="17.851" stroke="none"/><ellipse cx="17.851" cy="17.851" rx="15.851" ry="15.851" fill="none"/></g></g><g transform="translate(11.051 11.901)" fill="none" stroke="#f90" stroke-width="4"><ellipse cx="6.375" cy="6.375" rx="6.375" ry="6.375" stroke="none"/><ellipse cx="6.375" cy="6.375" rx="4.375" ry="4.375" fill="none"/></g></g></g></g></svg>