<svg xmlns="http://www.w3.org/2000/svg" width="44.517" height="38.535" viewBox="0 0 44.517 38.535">
  <g id="artists" opacity="0.5">
    <g id="person_black_24dp" transform="translate(5.982 0)">
      <path id="Path_11" data-name="Path 11" d="M0,0H38.535V38.535H0Z" fill="none"/>
      <path id="Path_12" data-name="Path 12" d="M16.845,7.211a3.211,3.211,0,1,1-3.211,3.211,3.221,3.221,0,0,1,3.211-3.211m0,16.056c4.335,0,9.313,2.071,9.634,3.211H7.211c.369-1.156,5.315-3.211,9.634-3.211M16.845,4a6.422,6.422,0,1,0,6.422,6.422A6.421,6.421,0,0,0,16.845,4Zm0,16.056C12.558,20.056,4,22.208,4,26.479V29.69H29.69V26.479C29.69,22.208,21.132,20.056,16.845,20.056Z" transform="translate(2.422 2.422)"/>
    </g>
    <g id="audiotrack_black_24dp" transform="translate(0 1.516)">
      <path id="Path_5" data-name="Path 5" d="M0,0H24.094V24.094H0Z" transform="translate(0)" fill="none"/>
      <path id="Path_6" data-name="Path 6" d="M12.024,3V13.591a4.007,4.007,0,1,0,2.008,3.464V7.016h4.016V3ZM10.016,19.063a2.008,2.008,0,1,1,2.008-2.008A2.014,2.014,0,0,1,10.016,19.063Z" transform="translate(0.023 0.012)"/>
    </g>
  </g>
</svg>
