<svg xmlns="http://www.w3.org/2000/svg" width="136.041" height="205.958" viewBox="0 0 136.041 205.958">
  <g id="Group_43859" data-name="Group 43859" transform="translate(-160.231 -256.14)">
    <g id="Group_3824" data-name="Group 3824" transform="translate(160.231 256.14)">
      <path id="Path_43230" data-name="Path 43230" d="M431.785,86.321,337.949,32.146a21.1,21.1,0,0,0-31.654,18.276V158.773a21.1,21.1,0,0,0,31.654,18.276l93.835-54.176A21.1,21.1,0,0,0,431.785,86.321Z" transform="translate(-306.295 -29.288)" fill="#0e0b1e"/>
      <g id="Group_4211" data-name="Group 4211" transform="translate(19.833 29.611)">
        <g id="Group_4206" data-name="Group 4206" transform="translate(29.305 0) rotate(21)">
          <path id="Path_46312" data-name="Path 46312" d="M11.634,55.1H1.119A1.119,1.119,0,0,0,0,56.219v3.075a22.479,22.479,0,0,0,22.48,22.48h1.129A21.351,21.351,0,0,0,44.959,60.422v-4.2A1.119,1.119,0,0,0,43.84,55.1H33.464A3.333,3.333,0,0,1,30.1,52.179a3.239,3.239,0,0,1,3.223-3.557h9.387a2.248,2.248,0,0,0,0-4.5H33.464A3.333,3.333,0,0,1,30.1,41.2a3.239,3.239,0,0,1,3.223-3.557h9.387a2.248,2.248,0,0,0,0-4.5H33.464A3.333,3.333,0,0,1,30.1,30.231a3.239,3.239,0,0,1,3.223-3.557H43.84a1.119,1.119,0,0,0,1.119-1.119V22.48A22.479,22.479,0,0,0,22.48,0h0A22.479,22.479,0,0,0,0,22.48v3.075a1.119,1.119,0,0,0,1.119,1.119H11.634a3.239,3.239,0,0,1,3.223,3.557,3.333,3.333,0,0,1-3.363,2.921H2.247a2.248,2.248,0,0,0,0,4.5h9.247a3.333,3.333,0,0,1,3.363,2.921,3.239,3.239,0,0,1-3.223,3.557H2.247a2.248,2.248,0,0,0,0,4.5h9.247a3.333,3.333,0,0,1,3.363,2.921A3.239,3.239,0,0,1,11.634,55.1Z" transform="translate(0 0)" fill="#fff"/>
          <path id="Path_46313" data-name="Path 46313" d="M43.84,55.1H33.464A3.333,3.333,0,0,1,30.1,52.179a3.239,3.239,0,0,1,3.223-3.557h9.387a2.248,2.248,0,0,0,0-4.5H33.464A3.333,3.333,0,0,1,30.1,41.2a3.239,3.239,0,0,1,3.223-3.557h9.386a2.248,2.248,0,1,0,0-4.5H33.464A3.333,3.333,0,0,1,30.1,30.231a3.239,3.239,0,0,1,3.223-3.557H43.84a1.119,1.119,0,0,0,1.119-1.119V22.48A22.479,22.479,0,0,0,22.48,0h0A22.479,22.479,0,0,0,0,22.48v3.075a1.119,1.119,0,0,0,1.119,1.119H11.634a3.239,3.239,0,0,1,3.223,3.557,3.333,3.333,0,0,1-3.363,2.921H2.248a2.248,2.248,0,1,0,0,4.5h9.247a3.333,3.333,0,0,1,3.363,2.921,3.239,3.239,0,0,1-3.223,3.557H2.248a2.248,2.248,0,1,0,0,4.5h9.247a3.333,3.333,0,0,1,3.363,2.921A3.239,3.239,0,0,1,11.634,55.1H1.119A1.119,1.119,0,0,0,0,56.219v3.075a22.479,22.479,0,0,0,22.48,22.48h1.129A21.351,21.351,0,0,0,44.959,60.422v-4.2A1.119,1.119,0,0,0,43.84,55.1Zm-.232,5.323a20.021,20.021,0,0,1-20,20H22.48A21.151,21.151,0,0,1,1.352,59.294V56.452H11.634a4.592,4.592,0,0,0,4.57-5.037,4.7,4.7,0,0,0-4.709-4.145H2.247a.9.9,0,0,1,0-1.792h9.387A4.592,4.592,0,0,0,16.2,40.44,4.7,4.7,0,0,0,11.495,36.3H2.247a.9.9,0,0,1,0-1.792h9.247A4.7,4.7,0,0,0,16.2,30.36a4.592,4.592,0,0,0-4.57-5.037H1.352V22.48a21.127,21.127,0,1,1,42.255,0v2.842H33.325a4.593,4.593,0,0,0-4.57,5.037,4.7,4.7,0,0,0,4.71,4.145h9.247a.9.9,0,0,1,0,1.792H33.325a4.593,4.593,0,0,0-4.57,5.037,4.7,4.7,0,0,0,4.71,4.145h9.247a.9.9,0,0,1,0,1.792H33.325a4.593,4.593,0,0,0-4.57,5.037,4.7,4.7,0,0,0,4.71,4.145H43.608Z" transform="translate(0 0)" fill="#fff" style="mix-blend-mode: screen;isolation: isolate"/>
          <path id="Path_46314" data-name="Path 46314" d="M22.48,0h0A22.479,22.479,0,0,0,0,22.48v3.075a1.119,1.119,0,0,0,1.119,1.119H11.634a3.239,3.239,0,0,1,3.223,3.557,3.333,3.333,0,0,1-3.363,2.921H2.248a2.248,2.248,0,1,0,0,4.5h9.247a3.333,3.333,0,0,1,3.363,2.921,3.227,3.227,0,0,1-.706,2.351,61.215,61.215,0,0,0,8.329.568,61.321,61.321,0,0,0,8.356-.572A3.081,3.081,0,0,1,30.1,41.2a3.239,3.239,0,0,1,3.223-3.557h9.386a2.248,2.248,0,1,0,0-4.5H33.464A3.333,3.333,0,0,1,30.1,30.231a3.239,3.239,0,0,1,3.223-3.557H43.84a1.119,1.119,0,0,0,1.119-1.119V22.48A22.479,22.479,0,0,0,22.48,0Z" transform="translate(0 0)" fill="#fff" style="mix-blend-mode: screen;isolation: isolate"/>
          <path id="Path_46315" data-name="Path 46315" d="M22.458,0A127.315,127.315,0,0,0,0,1.9,22.477,22.477,0,0,0,22.458,23.528h1.129A21.351,21.351,0,0,0,44.938,2.177V1.9A127.224,127.224,0,0,0,22.458,0Z" transform="translate(0.021 58.245)" fill="#fff" style="mix-blend-mode: multiply;isolation: isolate"/>
        </g>
        <line id="Line_14" data-name="Line 14" x1="4.511" y2="70.67" transform="translate(22.953 69.293)" fill="none" stroke="#fff" stroke-linecap="round" stroke-width="3"/>
      </g>
    </g>
    <g id="Group_43858" data-name="Group 43858" transform="translate(187.116 425.715)">
      <g id="Group_43829" data-name="Group 43829" transform="translate(39.306 0.48)">
        <rect id="Rectangle_4775" data-name="Rectangle 4775" width="4.779" height="35.903" rx="2.39" transform="translate(38.185 0)" fill="#0e0b1e"/>
        <g id="Group_43827" data-name="Group 43827" transform="translate(0 0)">
          <rect id="Rectangle_4779" data-name="Rectangle 4779" width="4.215" height="11.935" rx="2.107" transform="translate(23.817 7.614) rotate(90)" fill="#0e0b1e"/>
          <g id="disc">
            <g id="Group_14480" data-name="Group 14480">
              <path id="Path_28880" data-name="Path 28880" d="M8.856,0a8.856,8.856,0,1,0,8.856,8.856A8.856,8.856,0,0,0,8.856,0Zm0,11.664a2.808,2.808,0,1,1,2.808-2.808A2.811,2.811,0,0,1,8.856,11.664Z" fill="#0e0b1e"/>
              <g id="Group_14479" data-name="Group 14479" transform="translate(4.32)">
                <path id="Path_28881" data-name="Path 28881" d="M207.808,8.856A2.811,2.811,0,0,1,205,11.664v6.048A8.856,8.856,0,0,0,205,0V6.048A2.811,2.811,0,0,1,207.808,8.856Z" transform="translate(-200.464)" fill="#0e0b1e"/>
                <path id="Path_28882" data-name="Path 28882" d="M104.536,100a4.536,4.536,0,1,0,4.536,4.536A4.541,4.541,0,0,0,104.536,100Zm0,6.48a1.944,1.944,0,1,1,1.944-1.944A1.946,1.946,0,0,1,104.536,106.48Z" transform="translate(-100 -95.68)" fill="#0e0b1e"/>
                <path id="Path_28883" data-name="Path 28883" d="M205,102.592a1.944,1.944,0,0,1,0,3.888v2.592A4.536,4.536,0,0,0,205,100Z" transform="translate(-200.464 -95.68)" fill="#0e0b1e"/>
              </g>
            </g>
          </g>
          <g id="disc-2" data-name="disc" transform="translate(20.466)">
            <g id="Group_14480-2" data-name="Group 14480">
              <path id="Path_28880-2" data-name="Path 28880" d="M8.856,0a8.856,8.856,0,1,0,8.856,8.856A8.856,8.856,0,0,0,8.856,0Zm0,11.664a2.808,2.808,0,1,1,2.808-2.808A2.811,2.811,0,0,1,8.856,11.664Z" fill="#0e0b1e"/>
              <g id="Group_14479-2" data-name="Group 14479" transform="translate(4.32)">
                <path id="Path_28881-2" data-name="Path 28881" d="M207.808,8.856A2.811,2.811,0,0,1,205,11.664v6.048A8.856,8.856,0,0,0,205,0V6.048A2.811,2.811,0,0,1,207.808,8.856Z" transform="translate(-200.464)" fill="#0e0b1e"/>
                <path id="Path_28882-2" data-name="Path 28882" d="M104.536,100a4.536,4.536,0,1,0,4.536,4.536A4.541,4.541,0,0,0,104.536,100Zm0,6.48a1.944,1.944,0,1,1,1.944-1.944A1.946,1.946,0,0,1,104.536,106.48Z" transform="translate(-100 -95.68)" fill="#0e0b1e"/>
                <path id="Path_28883-2" data-name="Path 28883" d="M205,102.592a1.944,1.944,0,0,1,0,3.888v2.592A4.536,4.536,0,0,0,205,100Z" transform="translate(-200.464 -95.68)" fill="#0e0b1e"/>
              </g>
            </g>
          </g>
        </g>
      </g>
      <g id="Group_43828" data-name="Group 43828" transform="translate(0)">
        <rect id="Rectangle_4776" data-name="Rectangle 4776" width="4.779" height="36.383" rx="2.39" fill="#0e0b1e"/>
        <rect id="Rectangle_4777" data-name="Rectangle 4777" width="4.779" height="36.383" rx="2.39" transform="translate(19.088)" fill="#0e0b1e"/>
        <rect id="Rectangle_4778" data-name="Rectangle 4778" width="4.779" height="13.533" rx="2.39" transform="translate(18.295 15.49) rotate(90)" fill="#0e0b1e"/>
        <g id="disc-3" data-name="disc" transform="translate(23.544 20.945)">
          <g id="Group_14480-3" data-name="Group 14480">
            <path id="Path_28880-3" data-name="Path 28880" d="M7.719,0a7.719,7.719,0,1,0,7.719,7.719A7.719,7.719,0,0,0,7.719,0Zm0,10.167a2.448,2.448,0,1,1,2.448-2.448A2.45,2.45,0,0,1,7.719,10.167Z" fill="#0e0b1e"/>
            <g id="Group_14479-3" data-name="Group 14479" transform="translate(3.766)">
              <path id="Path_28881-3" data-name="Path 28881" d="M207.448,7.719A2.45,2.45,0,0,1,205,10.167v5.272A7.719,7.719,0,0,0,205,0V5.272A2.45,2.45,0,0,1,207.448,7.719Z" transform="translate(-201.046)" fill="#0e0b1e"/>
              <path id="Path_28882-3" data-name="Path 28882" d="M103.954,100a3.954,3.954,0,1,0,3.954,3.954A3.958,3.958,0,0,0,103.954,100Zm0,5.648a1.695,1.695,0,1,1,1.695-1.695A1.7,1.7,0,0,1,103.954,105.648Z" transform="translate(-100 -96.234)" fill="#0e0b1e"/>
              <path id="Path_28883-3" data-name="Path 28883" d="M205,102.259a1.695,1.695,0,0,1,0,3.389v2.259A3.954,3.954,0,0,0,205,100Z" transform="translate(-201.046 -96.234)" fill="#0e0b1e"/>
            </g>
          </g>
        </g>
      </g>
    </g>
  </g>
</svg>
