<svg xmlns="http://www.w3.org/2000/svg" width="116.533" height="129.021" viewBox="0 0 116.533 129.021">
  <g id="Logo" transform="translate(-160.231 -256.14)">
    <g id="Group_3824" data-name="Group 3824" transform="translate(160.231 256.14)">
      <path id="Path_43230" data-name="Path 43230" d="M413.79,78.142,333.41,31.737A18.077,18.077,0,0,0,306.3,47.392v92.813a18.077,18.077,0,0,0,27.115,15.655l80.379-46.407A18.078,18.078,0,0,0,413.79,78.142Z" transform="translate(-306.295 -29.288)" fill="#0e0b1e"/>
      <g id="Group_4211" data-name="Group 4211" transform="translate(16.989 25.365)">
        <g id="Group_4206" data-name="Group 4206" transform="translate(25.103 0) rotate(21)">
          <path id="Path_46312" data-name="Path 46312" d="M9.966,47.2H.959A.959.959,0,0,0,0,48.157v2.634A19.256,19.256,0,0,0,19.256,70.047h.967A18.289,18.289,0,0,0,38.512,51.758v-3.6a.958.958,0,0,0-.959-.959H28.666a2.855,2.855,0,0,1-2.88-2.5,2.775,2.775,0,0,1,2.761-3.047h8.041a1.926,1.926,0,0,0,0-3.851H28.666a2.855,2.855,0,0,1-2.88-2.5,2.775,2.775,0,0,1,2.761-3.047h8.041a1.926,1.926,0,0,0,0-3.851H28.666a2.855,2.855,0,0,1-2.88-2.5,2.775,2.775,0,0,1,2.761-3.047h9.007a.959.959,0,0,0,.959-.959V19.256A19.256,19.256,0,0,0,19.256,0h0A19.256,19.256,0,0,0,0,19.256V21.89a.959.959,0,0,0,.959.959H9.966A2.775,2.775,0,0,1,12.727,25.9a2.855,2.855,0,0,1-2.88,2.5H1.925a1.926,1.926,0,0,0,0,3.851H9.847a2.855,2.855,0,0,1,2.88,2.5A2.775,2.775,0,0,1,9.966,37.8H1.925a1.926,1.926,0,0,0,0,3.851H9.847a2.855,2.855,0,0,1,2.88,2.5A2.775,2.775,0,0,1,9.966,47.2Z" transform="translate(0 0)" fill="#fff"/>
          <path id="Path_46313" data-name="Path 46313" d="M37.553,47.2H28.666a2.855,2.855,0,0,1-2.88-2.5,2.775,2.775,0,0,1,2.761-3.047h8.041a1.926,1.926,0,0,0,0-3.851H28.666a2.855,2.855,0,0,1-2.88-2.5,2.775,2.775,0,0,1,2.761-3.047h8.04a1.926,1.926,0,1,0,0-3.851H28.666a2.855,2.855,0,0,1-2.88-2.5,2.775,2.775,0,0,1,2.761-3.047h9.007a.959.959,0,0,0,.959-.959V19.256A19.256,19.256,0,0,0,19.256,0h0A19.256,19.256,0,0,0,0,19.256V21.89a.959.959,0,0,0,.959.959H9.966A2.775,2.775,0,0,1,12.727,25.9a2.855,2.855,0,0,1-2.88,2.5H1.926a1.926,1.926,0,1,0,0,3.851H9.847a2.855,2.855,0,0,1,2.88,2.5A2.775,2.775,0,0,1,9.966,37.8H1.926a1.926,1.926,0,1,0,0,3.851H9.847a2.855,2.855,0,0,1,2.88,2.5A2.775,2.775,0,0,1,9.966,47.2H.959A.959.959,0,0,0,0,48.157v2.634A19.256,19.256,0,0,0,19.256,70.047h.967A18.289,18.289,0,0,0,38.512,51.758v-3.6A.958.958,0,0,0,37.553,47.2Zm-.2,4.56A17.15,17.15,0,0,1,20.223,68.889h-.967a18.118,18.118,0,0,1-18.1-18.1V48.357H9.966a3.933,3.933,0,0,0,3.914-4.315,4.028,4.028,0,0,0-4.034-3.551H1.925a.767.767,0,0,1,0-1.535H9.966a3.933,3.933,0,0,0,3.914-4.315,4.028,4.028,0,0,0-4.034-3.55H1.925a.767.767,0,0,1,0-1.535H9.847a4.028,4.028,0,0,0,4.034-3.55,3.933,3.933,0,0,0-3.914-4.315H1.158V19.256a18.1,18.1,0,1,1,36.2,0v2.435H28.546a3.934,3.934,0,0,0-3.914,4.315,4.029,4.029,0,0,0,4.034,3.55h7.921a.767.767,0,0,1,0,1.535H28.546a3.934,3.934,0,0,0-3.914,4.315,4.029,4.029,0,0,0,4.034,3.55h7.921a.767.767,0,0,1,0,1.535H28.546a3.934,3.934,0,0,0-3.914,4.315,4.03,4.03,0,0,0,4.034,3.551h8.688Z" transform="translate(0 0)" fill="#fff" style="mix-blend-mode: screen;isolation: isolate"/>
          <path id="Path_46314" data-name="Path 46314" d="M19.256,0h0A19.256,19.256,0,0,0,0,19.256V21.89a.959.959,0,0,0,.959.959H9.966A2.775,2.775,0,0,1,12.727,25.9a2.855,2.855,0,0,1-2.88,2.5H1.926a1.926,1.926,0,1,0,0,3.851H9.847a2.855,2.855,0,0,1,2.88,2.5,2.764,2.764,0,0,1-.605,2.014,52.436,52.436,0,0,0,7.134.486,52.528,52.528,0,0,0,7.158-.49,2.639,2.639,0,0,1-.628-1.465,2.775,2.775,0,0,1,2.761-3.047h8.04a1.926,1.926,0,1,0,0-3.851H28.666a2.855,2.855,0,0,1-2.88-2.5,2.775,2.775,0,0,1,2.761-3.047h9.007a.959.959,0,0,0,.959-.959V19.256A19.256,19.256,0,0,0,19.256,0Z" transform="translate(0 0)" fill="#fff" style="mix-blend-mode: screen;isolation: isolate"/>
          <path id="Path_46315" data-name="Path 46315" d="M19.238,0A109.058,109.058,0,0,0,0,1.628,19.253,19.253,0,0,0,19.238,20.154H20.2A18.289,18.289,0,0,0,38.494,1.865V1.631A108.98,108.98,0,0,0,19.238,0Z" transform="translate(0.018 49.893)" fill="#fff" style="mix-blend-mode: multiply;isolation: isolate"/>
        </g>
        <line id="Line_14" data-name="Line 14" x1="1" y2="33" transform="translate(20.277 64.959)" fill="none" stroke="#fff" stroke-linecap="round" stroke-width="3"/>
      </g>
    </g>
  </g>
</svg>
