<svg xmlns="http://www.w3.org/2000/svg" width="52.948" height="57.692" viewBox="0 0 52.948 57.692">
  <g id="Group_3772" data-name="Group 3772" transform="translate(-291.685 -213.368) rotate(21)">
    <path id="Path_43128" data-name="Path 43128" d="M383.038,87.846l-1.448.493,10.322,30.2a8.761,8.761,0,0,0-6.831,1.6c-3.416,2.291-5.011,5.894-3.568,8.048s5.381,2.039,8.8-.256c3.071-2.062,4.658-5.176,3.911-7.357C393.928,119.719,383.038,87.846,383.038,87.846Z" transform="translate(8.609 0.368)" fill="#741855"/>
    <path id="Path_43129" data-name="Path 43129" d="M369.787,96.3l-1.448.495,10.316,30.2a8.753,8.753,0,0,0-6.827,1.6c-3.416,2.293-5.014,5.894-3.568,8.044s5.384,2.039,8.8-.252c3.075-2.06,4.653-5.178,3.908-7.358C380.672,128.169,369.787,96.3,369.787,96.3Z" transform="translate(0 5.856)" fill="#741855"/>
    <g id="Group_3771" data-name="Group 3771" transform="translate(368.018 87.279)">
      <path id="Path_43130" data-name="Path 43130" d="M367.9,101.711l.864,2.533L392.08,89.812l-.866-2.532Z" transform="translate(-367.903 -87.279)" fill="#741855"/>
      <path id="Path_43131" data-name="Path 43131" d="M369.9,107.568l23.312-14.434-.867-2.535-23.309,14.434Z" transform="translate(-367.166 -85.123)" fill="#741855"/>
    </g>
  </g>
</svg>
