<svg xmlns="http://www.w3.org/2000/svg" xmlns:xlink="http://www.w3.org/1999/xlink" width="76.393" height="77.835" viewBox="0 0 76.393 77.835"><defs><filter id="a" x="9.098" y="15.82" width="31.448" height="52.196" filterUnits="userSpaceOnUse"><feOffset dx="-3" dy="3" input="SourceAlpha"/><feGaussianBlur stdDeviation="3" result="b"/><feFlood flood-opacity="0.149"/><feComposite operator="in" in2="b"/><feComposite in="SourceGraphic"/></filter><filter id="c" x="25.696" y="23.773" width="35.598" height="21.075" filterUnits="userSpaceOnUse"><feOffset dx="-3" dy="3" input="SourceAlpha"/><feGaussianBlur stdDeviation="3" result="d"/><feFlood flood-opacity="0.149"/><feComposite operator="in" in2="d"/><feComposite in="SourceGraphic"/></filter><filter id="e" x="25.696" y="31.38" width="32.832" height="21.075" filterUnits="userSpaceOnUse"><feOffset dx="-3" dy="3" input="SourceAlpha"/><feGaussianBlur stdDeviation="3" result="f"/><feFlood flood-opacity="0.149"/><feComposite operator="in" in2="f"/><feComposite in="SourceGraphic"/></filter><filter id="g" x="25.696" y="38.988" width="30.065" height="21.075" filterUnits="userSpaceOnUse"><feOffset dx="-3" dy="3" input="SourceAlpha"/><feGaussianBlur stdDeviation="3" result="h"/><feFlood flood-opacity="0.149"/><feComposite operator="in" in2="h"/><feComposite in="SourceGraphic"/></filter></defs><g transform="translate(0.5 0.5)"><g transform="translate(0 0)"><rect width="75.393" height="76.835" rx="5" transform="translate(0 0)" fill="#fafafa" stroke="#f3f3f3" stroke-width="1"/><g transform="translate(21.098 21.82)"><g transform="matrix(1, 0, 0, 1, -21.6, -22.32)" filter="url(#a)"><path d="M52.374,99v22.407a6.173,6.173,0,1,0,2.075,4.564V99Zm-4.149,31.121a4.149,4.149,0,1,1,4.149-4.149A4.075,4.075,0,0,1,48.224,130.121Z" transform="translate(-20.4 -76.68)" fill="#f90" stroke="#f90" stroke-width="1"/></g><g transform="matrix(1, 0, 0, 1, -21.6, -22.32)" filter="url(#c)"><rect width="16.598" height="2.075" transform="translate(38.2 30.27)" fill="#f90" stroke="#f90" stroke-width="1"/></g><g transform="matrix(1, 0, 0, 1, -21.6, -22.32)" filter="url(#e)"><rect width="13.832" height="2.075" transform="translate(38.2 37.88)" fill="#f90" stroke="#f90" stroke-width="1"/></g><g transform="matrix(1, 0, 0, 1, -21.6, -22.32)" filter="url(#g)"><rect width="11.065" height="2.075" transform="translate(38.2 45.49)" fill="#f90" stroke="#f90" stroke-width="1"/></g></g></g></g></svg>