<svg id="Album" xmlns="http://www.w3.org/2000/svg" width="45.76" height="45.76" viewBox="0 0 45.76 45.76">
  <path id="Path_763" data-name="Path 763" d="M22.88,0A22.88,22.88,0,1,0,45.76,22.88,22.947,22.947,0,0,0,22.88,0Zm0,42.9A20.02,20.02,0,1,1,42.9,22.88,20.018,20.018,0,0,1,22.88,42.9Z" transform="translate(0 0)" fill="#741855"/>
  <path id="Path_765" data-name="Path 765" d="M7.627,0a7.627,7.627,0,1,0,7.627,7.627A7.649,7.649,0,0,0,7.627,0Zm0,12.393A4.72,4.72,0,0,1,2.86,7.627,4.72,4.72,0,0,1,7.627,2.86a4.72,4.72,0,0,1,4.767,4.767A4.72,4.72,0,0,1,7.627,12.393Z" transform="translate(15.253 15.253)" fill="#741855"/>
</svg>
