<svg xmlns="http://www.w3.org/2000/svg" xmlns:xlink="http://www.w3.org/1999/xlink" width="76.097" height="77.835" viewBox="0 0 76.097 77.835"><defs><filter id="a" x="10.214" y="13.046" width="49.67" height="57.743" filterUnits="userSpaceOnUse"><feOffset dx="-3" dy="3" input="SourceAlpha"/><feGaussianBlur stdDeviation="3" result="b"/><feFlood flood-opacity="0.161"/><feComposite operator="in" in2="b"/><feComposite in="SourceGraphic"/></filter></defs><g transform="translate(0.5 0.5)"><g transform="translate(0 0)"><rect width="75.097" height="76.835" rx="5" transform="translate(0 0)" fill="#fafafa" stroke="#f3f3f3" stroke-width="1"/><g transform="translate(21.714 18.546)"><g transform="matrix(1, 0, 0, 1, -22.21, -19.05)" filter="url(#a)"><path d="M356.87,67.357l-23.659,5.408v6.162l.013,0V99.171a5.862,5.862,0,0,0-4.585.2c-2.631,1.17-4.056,3.717-3.183,5.693s3.719,2.624,6.356,1.463a5.551,5.551,0,0,0,3.375-3.9h.019v-.09a3.317,3.317,0,0,0,0-.978V78.451l19.668-4.7V94.164a5.83,5.83,0,0,0-4.615.187c-2.635,1.168-4.057,3.717-3.187,5.691s3.721,2.629,6.357,1.463c2.193-.974,3.527-2.9,3.411-4.66h.015V73.28l.015,0Z" transform="translate(-302.99 -48.31)" fill="#f90"/></g></g></g></g></svg>