<svg xmlns="http://www.w3.org/2000/svg" xmlns:xlink="http://www.w3.org/1999/xlink" width="374" height="735" viewBox="0 0 374 735">
  <defs>
    <clipPath id="clip-path">
      <rect id="Rectangle_10186" data-name="Rectangle 10186" width="15.46" height="128.005" fill="#dcdcdc"/>
    </clipPath>
    <clipPath id="clip-path-2">
      <rect id="Rectangle_10189" data-name="Rectangle 10189" width="75.834" height="10.866" fill="#dcdcdc"/>
    </clipPath>
    <clipPath id="clip-path-3">
      <rect id="Rectangle_10191" data-name="Rectangle 10191" width="8.499" height="69.397" fill="#dcdcdc"/>
    </clipPath>
    <clipPath id="clip-path-4">
      <rect id="Rectangle_10194" data-name="Rectangle 10194" width="42.715" height="6.121" fill="#dcdcdc"/>
    </clipPath>
    <clipPath id="clip-path-5">
      <rect id="Rectangle_10196" data-name="Rectangle 10196" width="8.499" height="66.863" fill="#dcdcdc"/>
    </clipPath>
    <clipPath id="clip-path-6">
      <rect id="Rectangle_10199" data-name="Rectangle 10199" width="42.717" height="6.12" fill="#dcdcdc"/>
    </clipPath>
  </defs>
  <g id="Group_48986" data-name="Group 48986" transform="translate(-2745.51 -3399)">
    <g id="the_whole_background" data-name="the whole background" transform="translate(2745.51 3398)">
      <rect id="Rectangle_8315" data-name="Rectangle 8315" width="374" height="735" transform="translate(0 1)" fill="#00202a"/>
      <g id="music_note" data-name="music note" transform="translate(-20.491 -0.958)">
        <path id="Path_201567" data-name="Path 201567" d="M229.93,55.385a7.619,7.619,0,0,0,4.12,3.026,5.577,5.577,0,0,1,3.451,2.731,2.514,2.514,0,0,1,.159,2.189,12.856,12.856,0,0,0-.383-1.854,3.215,3.215,0,0,0-2-1.989c-1.6-.588-3.2-1.179-4.821-1.779a2.688,2.688,0,0,0,1.093,2.6c.857.548,1.754,1.039,2.653,1.519.765.409,1.614.684,2.328,1.162,1.979,1.326,2.053,4.739-.016,6.358.135-.395.2-.592.271-.791a16.772,16.772,0,0,0,.835-2.6,2.91,2.91,0,0,0-2.069-2.985c-1.525-.572-3.058-1.123-4.643-1.7.015.191.023.456.057.717.384,3,.778,5.993,1.155,8.991a19.226,19.226,0,0,1,.153,1.99,3.536,3.536,0,0,1-6,2.6,3.127,3.127,0,0,1-.257-3.9,4.857,4.857,0,0,1,3.111-2.075c2.408-.568,2.213-.377,1.914-2.678q-.69-5.3-1.365-10.591a7,7,0,0,1,0-.893Z" fill="#d0d0d1" opacity="0.55"/>
        <path id="Path_201568" data-name="Path 201568" d="M73.387,166.609a7.612,7.612,0,0,0,4.12,3.025,5.582,5.582,0,0,1,3.451,2.732,2.515,2.515,0,0,1,.159,2.188,12.755,12.755,0,0,0-.384-1.854,3.209,3.209,0,0,0-2-1.988c-1.6-.588-3.2-1.179-4.82-1.779a2.687,2.687,0,0,0,1.093,2.6c.857.549,1.754,1.04,2.653,1.52.765.409,1.613.683,2.328,1.162,1.979,1.326,2.053,4.739-.016,6.357.135-.394.2-.592.27-.79a16.6,16.6,0,0,0,.835-2.6,2.91,2.91,0,0,0-2.068-2.985c-1.525-.572-3.058-1.123-4.643-1.7.015.191.023.455.056.716.385,3,.779,5.994,1.156,8.992a19.464,19.464,0,0,1,.153,1.99,3.537,3.537,0,0,1-6,2.6,3.129,3.129,0,0,1-.256-3.9,4.85,4.85,0,0,1,3.11-2.074c2.409-.568,2.214-.377,1.915-2.678q-.69-5.295-1.365-10.591a7.016,7.016,0,0,1,0-.894Z" fill="#d0d0d1" opacity="0.55"/>
        <path id="Path_201569" data-name="Path 201569" d="M325.422,97.963a7.61,7.61,0,0,0,4.119,3.025,5.581,5.581,0,0,1,3.452,2.732,2.515,2.515,0,0,1,.159,2.188,12.76,12.76,0,0,0-.384-1.854,3.212,3.212,0,0,0-2-1.988c-1.6-.588-3.2-1.179-4.82-1.779a2.685,2.685,0,0,0,1.092,2.6c.858.549,1.755,1.04,2.653,1.52.766.409,1.614.683,2.329,1.162,1.979,1.326,2.053,4.739-.016,6.357.135-.394.2-.592.27-.79a16.709,16.709,0,0,0,.835-2.6,2.91,2.91,0,0,0-2.068-2.985c-1.525-.572-3.058-1.123-4.643-1.7.015.191.023.455.056.716.385,3,.779,5.993,1.155,8.992a19.2,19.2,0,0,1,.154,1.989,3.537,3.537,0,0,1-6,2.6,3.128,3.128,0,0,1-.256-3.9,4.85,4.85,0,0,1,3.11-2.074c2.409-.568,2.214-.377,1.914-2.678q-.689-5.295-1.364-10.591a6.833,6.833,0,0,1,0-.894Z" fill="#d0d0d1" opacity="0.55"/>
        <path id="Path_201570" data-name="Path 201570" d="M27.966,68.979A7.614,7.614,0,0,0,32.086,72a5.579,5.579,0,0,1,3.451,2.732A2.515,2.515,0,0,1,35.7,76.92a12.755,12.755,0,0,0-.384-1.854,3.211,3.211,0,0,0-2-1.989c-1.6-.588-3.2-1.179-4.82-1.778a2.689,2.689,0,0,0,1.092,2.6c.858.549,1.755,1.039,2.653,1.519.766.409,1.614.684,2.329,1.163,1.979,1.326,2.053,4.739-.016,6.357.135-.394.2-.592.27-.791a16.561,16.561,0,0,0,.835-2.6,2.909,2.909,0,0,0-2.068-2.985c-1.525-.572-3.058-1.123-4.643-1.7.015.192.023.456.056.717.385,3,.779,5.993,1.156,8.991a19.509,19.509,0,0,1,.153,1.99,3.537,3.537,0,0,1-6,2.6,3.13,3.13,0,0,1-.256-3.9,4.85,4.85,0,0,1,3.11-2.074c2.409-.568,2.214-.377,1.915-2.679q-.69-5.294-1.365-10.591a7,7,0,0,1,0-.893Z" fill="#d0d0d1" opacity="0.55"/>
        <path id="Path_201571" data-name="Path 201571" d="M270.436,106.642a7.616,7.616,0,0,0,.3,5.1,5.574,5.574,0,0,1,.1,4.4,2.507,2.507,0,0,1-1.583,1.518,12.837,12.837,0,0,0,1.183-1.477,3.216,3.216,0,0,0,.255-2.811c-.567-1.606-1.13-3.213-1.7-4.847a2.688,2.688,0,0,0-1.306,2.5c.125,1.011.319,2.014.522,3.013.173.85.5,1.679.59,2.535.241,2.369-2.341,4.6-4.907,4.042.39-.148.586-.221.782-.3a16.648,16.648,0,0,0,2.533-1.014,2.908,2.908,0,0,0,.98-3.5c-.532-1.54-1.085-3.072-1.649-4.663-.138.133-.336.308-.516.5l-6.188,6.624a19.165,19.165,0,0,1-1.435,1.387,3.537,3.537,0,0,1-5.829-2.97A3.129,3.129,0,0,1,255.407,114a4.852,4.852,0,0,1,3.581,1.073c1.974,1.493,1.7,1.464,3.284-.234q3.639-3.908,7.287-7.806a7.022,7.022,0,0,1,.687-.571Z" fill="#d0d0d1" opacity="0.55"/>
        <path id="Path_201572" data-name="Path 201572" d="M238.223,244.588a7.612,7.612,0,0,0,5.111-.023,5.582,5.582,0,0,1,4.4.139,2.514,2.514,0,0,1,1.431,1.663,12.85,12.85,0,0,0-1.412-1.26,3.213,3.213,0,0,0-2.793-.406c-1.634.48-3.269.957-4.931,1.442a2.686,2.686,0,0,0,2.426,1.439c1.016-.071,2.028-.21,3.036-.36.858-.127,1.7-.412,2.563-.453,2.379-.113,4.471,2.584,3.773,5.116-.126-.4-.189-.6-.254-.8a16.745,16.745,0,0,0-.876-2.584,2.91,2.91,0,0,0-3.44-1.166c-1.565.449-3.125.919-4.744,1.4.126.145.29.353.472.542q3.141,3.269,6.283,6.535a19.494,19.494,0,0,1,1.308,1.507,3.537,3.537,0,0,1-3.278,5.661A3.126,3.126,0,0,1,244.77,260a4.852,4.852,0,0,1,1.263-3.519c1.6-1.89,1.554-1.621-.057-3.291q-3.706-3.843-7.4-7.7a7.166,7.166,0,0,1-.534-.717Z" fill="#d0d0d1" opacity="0.55"/>
        <path id="Path_201573" data-name="Path 201573" d="M238.64,2.958,228.306,5.32v2.7h.006v8.843a2.565,2.565,0,0,0-2,.086,2.059,2.059,0,0,0-1.39,2.486,2.058,2.058,0,0,0,2.776.639,2.417,2.417,0,0,0,1.473-1.7h.009v-.04a1.454,1.454,0,0,0,0-.427V7.8l8.59-2.053v8.914a2.55,2.55,0,0,0-2.017.083,2.056,2.056,0,0,0-1.393,2.484,2.056,2.056,0,0,0,2.775.639,2.261,2.261,0,0,0,1.487-2.034h.006V5.541h.007Z" fill="#fff" opacity="0.55"/>
        <path id="Path_201574" data-name="Path 201574" d="M83,98.692l-18.923,4.326v4.925h.011v16.194a4.689,4.689,0,0,0-3.668.158c-2.1.935-3.245,2.973-2.544,4.552s2.974,2.1,5.083,1.171a4.437,4.437,0,0,0,2.7-3.116h.016v-.073a2.628,2.628,0,0,0,0-.782v-18.48l15.73-3.758v16.327a4.662,4.662,0,0,0-3.692.15c-2.107.933-3.245,2.973-2.549,4.551s2.976,2.1,5.084,1.17a4.143,4.143,0,0,0,2.728-3.727h.012V103.429H83Z" fill="#fff" opacity="0.55"/>
        <path id="Path_201574-2" data-name="Path 201574" d="M83,98.692l-18.923,4.326v4.925h.011v16.194a4.689,4.689,0,0,0-3.668.158c-2.1.935-3.245,2.973-2.544,4.552s2.974,2.1,5.083,1.171a4.437,4.437,0,0,0,2.7-3.116h.016v-.073a2.628,2.628,0,0,0,0-.782v-18.48l15.73-3.758v16.327a4.662,4.662,0,0,0-3.692.15c-2.107.933-3.245,2.973-2.549,4.551s2.976,2.1,5.084,1.17a4.143,4.143,0,0,0,2.728-3.727h.012V103.429H83Z" transform="translate(-27.886 -88.103)" fill="#fff" opacity="0.55"/>
        <path id="Path_201575" data-name="Path 201575" d="M223.986,123.211l-13.1-1.808-1.188,3.139h.007l-3.9,10.32a3.191,3.191,0,0,0-2.374-.785c-1.567.09-2.784,1.111-2.721,2.288s1.39,2.054,2.957,1.971A3.027,3.027,0,0,0,206.133,137h.01l.018-.046a1.839,1.839,0,0,0,.188-.5l4.459-11.777,10.927,1.4-3.938,10.4a3.168,3.168,0,0,0-2.387-.794c-1.568.086-2.784,1.11-2.722,2.284s1.388,2.057,2.957,1.971a2.822,2.822,0,0,0,2.638-1.716h.007l4.546-12.007h.008Z" fill="#fff" opacity="0.55"/>
        <path id="Path_201576" data-name="Path 201576" d="M107.124,61.927l14.248,3.255v3.709h-.009V81.078a3.543,3.543,0,0,1,2.762.118,2.837,2.837,0,0,1,1.914,3.428,2.837,2.837,0,0,1-3.825.881,3.344,3.344,0,0,1-2.033-2.347h-.01V83.1a1.945,1.945,0,0,1,0-.59V68.6l-11.847-2.836v12.29a3.5,3.5,0,0,1,2.778.113,2.838,2.838,0,0,1,1.918,3.424,2.839,2.839,0,0,1-3.827.881,3.119,3.119,0,0,1-2.052-2.806h-.009V65.491h-.008Z" fill="#fff" opacity="0.55"/>
        <path id="Path_201577" data-name="Path 201577" d="M141.039,162.91l-15.87,3.625v4.134h.009v13.582a3.933,3.933,0,0,0-3.076.132c-1.764.785-2.72,2.493-2.134,3.819s2.5,1.761,4.263.981a3.728,3.728,0,0,0,2.265-2.614h.012v-.06a2.254,2.254,0,0,0,0-.656v-15.5L139.7,167.2v13.692a3.913,3.913,0,0,0-3.1.125c-1.768.784-2.722,2.493-2.138,3.817s2.5,1.764,4.264.981a3.471,3.471,0,0,0,2.288-3.126h.01v-15.8h.01Z" fill="#fff" opacity="0.55"/>
        <path id="Path_201578" data-name="Path 201578" d="M335.564,37.283l-.454.008c-2.377.019-3-.331-3.522-.8l-.021-.032a.521.521,0,0,0-.872.568l9.947,15.289h0l.05.077a4.093,4.093,0,0,0-3.269,2.005c-1.16,1.787-1.015,3.941.319,4.814s3.369.129,4.532-1.655a3.812,3.812,0,0,0,.2-4.328l-5.314-8.168h0l-4.5-6.918a11.471,11.471,0,0,0,2.454.183l.471-.008c2.379-.049,4.744.084,5.221,2.251a.52.52,0,1,0,1.016-.223c-.7-3.182-4.315-3.108-6.258-3.068" fill="#fff" opacity="0.55"/>
        <path id="Path_201579" data-name="Path 201579" d="M277.938,164.614l-.425.062c-2.218.295-2.837.045-3.379-.325l-.024-.028a.49.49,0,0,0-.747.633l11.094,13.084h0l.055.066a3.854,3.854,0,0,0-2.81,2.26c-.87,1.8-.479,3.8.871,4.453s3.157-.279,4.033-2.079a3.584,3.584,0,0,0-.325-4.062l-5.929-6.993h0l-5.019-5.919a10.975,10.975,0,0,0,2.312-.121l.435-.062c2.213-.327,4.436-.482,5.138,1.482a.49.49,0,0,0,.922-.329c-1.03-2.888-4.394-2.388-6.2-2.122" fill="#fff" opacity="0.55"/>
        <path id="Path_201580" data-name="Path 201580" d="M309.424,219.8l-.233-.146c-1.208-.775-1.412-1.157-1.524-1.566v-.023a.315.315,0,1,0-.63,0v11.091a2.475,2.475,0,0,0-2.324-.061,1.824,1.824,0,1,0,1.419,3.2,2.307,2.307,0,0,0,1.53-2.127V219.282a6.924,6.924,0,0,0,1.184.9l.242.152c1.222.759,2.379,1.608,1.9,2.864a.316.316,0,0,0,.59.223c.7-1.845-1.16-3-2.159-3.622" fill="#fff" opacity="0.55"/>
        <path id="Path_201581" data-name="Path 201581" d="M276.31,13.691l-.233-.147c-1.209-.774-1.413-1.157-1.525-1.565v-.023a.315.315,0,0,0-.63,0V23.045a2.475,2.475,0,0,0-2.324-.062,2.113,2.113,0,0,0-1.426,2.546,2.111,2.111,0,0,0,2.845.656,2.309,2.309,0,0,0,1.531-2.127V13.172a6.931,6.931,0,0,0,1.184.9l.241.151c1.222.76,2.379,1.609,1.9,2.865a.315.315,0,0,0,.59.222c.7-1.845-1.159-3-2.158-3.621" fill="#fff" opacity="0.55"/>
        <path id="Path_201582" data-name="Path 201582" d="M389.155,33.661l-.234-.148c-1.218-.778-1.419-1.163-1.531-1.573v-.023a.317.317,0,1,0-.633-.035v11.18A2.5,2.5,0,0,0,384.425,43a2.121,2.121,0,0,0-1.432,2.559,2.121,2.121,0,0,0,2.859.66,2.315,2.315,0,0,0,1.537-2.138V33.143a7.178,7.178,0,0,0,1.19.907l.243.151c1.229.763,2.39,1.616,1.914,2.882a.316.316,0,1,0,.592.224c.7-1.861-1.173-3.022-2.173-3.646" fill="#fff" opacity="0.55"/>
        <path id="Path_201583" data-name="Path 201583" d="M115.651,10.144l-.214-.134c-1.108-.709-1.291-1.059-1.394-1.432V8.557a.288.288,0,0,0-.576,0V18.7a2.263,2.263,0,0,0-2.121-.057,1.673,1.673,0,1,0,1.3,2.931,2.111,2.111,0,0,0,1.4-1.948V9.67a6.4,6.4,0,0,0,1.084.826l.221.138c1.116.7,2.177,1.472,1.743,2.621a.288.288,0,0,0,.538.2c.631-1.694-1.07-2.746-1.983-3.315" fill="#fff" opacity="0.55"/>
        <path id="Path_201584" data-name="Path 201584" d="M171.031,246.04l-.214-.134c-1.108-.709-1.291-1.058-1.4-1.432v-.021a.288.288,0,0,0-.575,0V254.6a2.263,2.263,0,0,0-2.121-.057,1.673,1.673,0,1,0,1.3,2.931,2.111,2.111,0,0,0,1.4-1.948v-9.961a6.36,6.36,0,0,0,1.084.826l.221.138c1.115.7,2.176,1.472,1.743,2.621a.288.288,0,0,0,.538.2c.631-1.694-1.07-2.746-1.983-3.315" fill="#fff" opacity="0.55"/>
        <path id="Path_201585" data-name="Path 201585" d="M70.068,45.258a2.767,2.767,0,0,0-1.381-1.441,2.7,2.7,0,0,0-1.828-.146,2.755,2.755,0,0,0-.862.4c-.025-.149-.052-.3-.075-.448-.048-.287-.093-.579-.131-.874a6.536,6.536,0,0,0,.749-.828,4.749,4.749,0,0,0,1.067-2.447c.274-2.7-.59-4-1.291-3.932-1.531.233-1.328,2.846-1.022,5.557a8.521,8.521,0,0,1-.66.735l-.428.421c-.143.135-.291.3-.443.464A6.385,6.385,0,0,0,62.4,45a3.433,3.433,0,0,0,.159,2.7,3.669,3.669,0,0,0,1.916,1.673,5.315,5.315,0,0,0,2.257.341c.073.387.14.764.193,1.116A1.789,1.789,0,0,1,66.24,52.9a1.154,1.154,0,0,1-1.124-.085.588.588,0,0,0,.094.011.789.789,0,1,0-.766-.812h0a.722.722,0,0,0,.007.1v.009a.786.786,0,0,0,.206.452c.022.029.044.06.07.092a1.469,1.469,0,0,0,.6.426,1.536,1.536,0,0,0,1,.021,1.462,1.462,0,0,0,.9-.888,1.841,1.841,0,0,0,.139-.71,6.716,6.716,0,0,0-.077-.749c-.055-.352-.122-.722-.192-1.1a5.025,5.025,0,0,0,1.845-.634,2.95,2.95,0,0,0,1.289-1.71,3.1,3.1,0,0,0-.156-2.067m-3.41-8.718c.307.093.347.518.343.788a3.961,3.961,0,0,1-.472,1.832,16.558,16.558,0,0,1-.943,1.537c-.17-2.71.453-4.354,1.071-4.157Zm-1.924,12.22a2.98,2.98,0,0,1-1.408-1.444,2.434,2.434,0,0,1,.087-1.936,5.8,5.8,0,0,1,1.313-1.708c.126-.119.262-.244.427-.377l.221-.186.161-.135c.033.231.069.465.1.688.032.2.065.4.093.6a2.786,2.786,0,0,0-.546,3.531c.052.086.079.129.079.129a4.67,4.67,0,0,1-.093-.578,2.913,2.913,0,0,1,.232-1.508,2.3,2.3,0,0,1,.48-.686c.144.836.29,1.636.43,2.394.1.589.214,1.151.317,1.685a4.194,4.194,0,0,1-1.894-.469m5.046-1.536a2.118,2.118,0,0,1-1.047,1.493,3.962,3.962,0,0,1-1.733.509q-.164-.837-.354-1.744c-.169-.8-.341-1.66-.5-2.552a2.2,2.2,0,0,1,3.082.4,2.068,2.068,0,0,1,.177.268,2.411,2.411,0,0,1,.378,1.632Z" fill="#fff" opacity="0.55"/>
        <path id="Path_201586" data-name="Path 201586" d="M116.972,226.327a4.159,4.159,0,0,0-2.072-2.165,4.076,4.076,0,0,0-2.747-.219,4.191,4.191,0,0,0-1.295.6c-.038-.224-.077-.446-.114-.673-.073-.431-.135-.87-.2-1.313a9.956,9.956,0,0,0,1.123-1.243,7.13,7.13,0,0,0,1.605-3.677c.41-4.059-.889-6.007-1.939-5.9-2.3.348-2,4.275-1.542,8.348a12.613,12.613,0,0,1-.989,1.1l-.644.633c-.214.2-.436.446-.666.7a9.575,9.575,0,0,0-2.053,3.421,5.152,5.152,0,0,0,.238,4.043,5.5,5.5,0,0,0,2.881,2.509,8.016,8.016,0,0,0,3.39.513c.11.581.212,1.147.291,1.677a2.688,2.688,0,0,1-1.028,3.117,1.737,1.737,0,0,1-1.69-.129.81.81,0,0,0,.139.017,1.186,1.186,0,1,0-1.151-1.22h0c0,.054.006.1.011.155v.016a1.189,1.189,0,0,0,.312.679c.033.045.064.093.1.137a2.217,2.217,0,0,0,.9.638,2.317,2.317,0,0,0,1.5.034A2.2,2.2,0,0,0,112.7,236.8a2.786,2.786,0,0,0,.209-1.066,9.915,9.915,0,0,0-.116-1.127c-.082-.528-.181-1.084-.287-1.651A7.565,7.565,0,0,0,115.28,232a4.442,4.442,0,0,0,1.934-2.568,4.649,4.649,0,0,0-.239-3.1m-5.127-13.1c.465.146.522.779.517,1.181a5.976,5.976,0,0,1-.709,2.754,25.494,25.494,0,0,1-1.419,2.308c-.247-4.071.682-6.537,1.611-6.243m-2.881,18.362a4.486,4.486,0,0,1-2.115-2.168,3.655,3.655,0,0,1,.131-2.909,8.734,8.734,0,0,1,1.971-2.566c.186-.179.4-.371.644-.568l.332-.279.242-.2q.077.522.151,1.034c.048.3.1.6.147.9a4.2,4.2,0,0,0-.823,5.312c.078.128.119.193.119.193a6.877,6.877,0,0,1-.14-.866,4.412,4.412,0,0,1,.349-2.268,3.467,3.467,0,0,1,.72-1.03c.216,1.252.436,2.457.651,3.6.155.885.322,1.728.475,2.533a6.291,6.291,0,0,1-2.848-.709Zm7.579-2.308a3.162,3.162,0,0,1-1.572,2.242,5.928,5.928,0,0,1-2.6.766c-.163-.837-.343-1.707-.534-2.618-.254-1.208-.511-2.494-.755-3.834a3.3,3.3,0,0,1,4.9,1,3.622,3.622,0,0,1,.571,2.447Z" fill="#fff" opacity="0.55"/>
        <path id="Path_201587" data-name="Path 201587" d="M183.173,33.276a3.29,3.29,0,0,0-1.638-1.712,3.219,3.219,0,0,0-2.172-.172,3.3,3.3,0,0,0-1.023.474c-.03-.178-.06-.352-.09-.533-.057-.34-.107-.687-.155-1.037a8.035,8.035,0,0,0,.889-.982,5.662,5.662,0,0,0,1.268-2.908c.323-3.208-.7-4.748-1.535-4.669-1.817.276-1.577,3.381-1.218,6.6a10.115,10.115,0,0,1-.783.873l-.509.5c-.169.162-.345.351-.525.556a7.591,7.591,0,0,0-1.623,2.7,4.075,4.075,0,0,0,.189,3.2,4.349,4.349,0,0,0,2.276,1.983,6.308,6.308,0,0,0,2.679.4c.086.46.167.906.23,1.327a2.127,2.127,0,0,1-.813,2.463,1.371,1.371,0,0,1-1.335-.1.65.65,0,0,0,.108.014.937.937,0,1,0-.908-.966h0a1,1,0,0,0,.008.122h0v.012a.943.943,0,0,0,.245.539c.026.035.051.071.081.108a1.765,1.765,0,0,0,.713.505,1.828,1.828,0,0,0,1.189.026,1.738,1.738,0,0,0,1.064-1.056,2.177,2.177,0,0,0,.166-.843,7.793,7.793,0,0,0-.092-.888c-.065-.418-.143-.856-.227-1.306a5.937,5.937,0,0,0,2.192-.753,3.5,3.5,0,0,0,1.53-2.03,3.681,3.681,0,0,0-.182-2.454m-4.051-10.352c.363.117.413.616.409.935a4.742,4.742,0,0,1-.561,2.177,20.168,20.168,0,0,1-1.121,1.824c-.2-3.219.54-5.169,1.273-4.936M176.845,37.44a3.547,3.547,0,0,1-1.67-1.714,2.89,2.89,0,0,1,.1-2.3,6.9,6.9,0,0,1,1.559-2.028c.149-.141.313-.29.508-.449l.263-.22c.064-.052.127-.1.19-.162q.062.412.121.817c.038.242.077.475.116.712a3.236,3.236,0,0,0-.886,3.723,3.342,3.342,0,0,0,.236.476l.1.152a5.3,5.3,0,0,1-.111-.686,3.49,3.49,0,0,1,.275-1.793,2.738,2.738,0,0,1,.57-.814c.171.99.344,1.942.51,2.842.125.7.256,1.367.377,2a4.962,4.962,0,0,1-2.252-.558Zm5.993-1.825a2.508,2.508,0,0,1-1.243,1.773,4.7,4.7,0,0,1-2.06.6c-.128-.658-.27-1.349-.421-2.07-.2-.954-.4-1.97-.6-3.028a2.612,2.612,0,0,1,3.876.787,2.867,2.867,0,0,1,.447,1.933Z" fill="#fff" opacity="0.55"/>
        <path id="Path_201588" data-name="Path 201588" d="M286.384,78.685a2.887,2.887,0,0,0-1.442-1.507,2.837,2.837,0,0,0-1.912-.153,2.949,2.949,0,0,0-.9.418c-.026-.155-.054-.31-.079-.464-.05-.3-.093-.606-.135-.914a7.3,7.3,0,0,0,.783-.865,4.978,4.978,0,0,0,1.115-2.559c.286-2.825-.619-4.183-1.349-4.111-1.6.243-1.39,2.974-1.074,5.81a8.629,8.629,0,0,1-.688.768l-.448.441c-.149.142-.3.309-.465.489a6.651,6.651,0,0,0-1.427,2.382,3.576,3.576,0,0,0,.165,2.813,3.819,3.819,0,0,0,2,1.746,5.561,5.561,0,0,0,2.358.357c.075.4.148.8.2,1.167a1.874,1.874,0,0,1-.716,2.17,1.208,1.208,0,0,1-1.176-.094.578.578,0,0,0,.093.013.826.826,0,1,0-.8-.852h0c0,.037.005.072.008.108v.011a.823.823,0,0,0,.218.472.752.752,0,0,0,.072.093,1.537,1.537,0,0,0,.627.443,1.606,1.606,0,0,0,1.047.024,1.536,1.536,0,0,0,.938-.93,1.933,1.933,0,0,0,.144-.744,6.424,6.424,0,0,0-.081-.783c-.057-.372-.126-.754-.2-1.149a5.244,5.244,0,0,0,1.931-.663,3.1,3.1,0,0,0,1.346-1.788,3.242,3.242,0,0,0-.158-2.153m-3.564-9.114c.321.1.363.542.361.823a4.176,4.176,0,0,1-.494,1.916,17.962,17.962,0,0,1-.987,1.606c-.178-2.833.473-4.55,1.119-4.345Zm-2,12.78a3.108,3.108,0,0,1-1.471-1.509,2.54,2.54,0,0,1,.092-2.025,6.074,6.074,0,0,1,1.371-1.784c.133-.125.28-.256.448-.395l.231-.194c.057-.046.112-.092.168-.142q.055.364.107.72c.032.213.068.419.1.627a2.848,2.848,0,0,0-.779,3.279,2.658,2.658,0,0,0,.208.417c.054.094.082.135.082.135a4.866,4.866,0,0,1-.1-.6,3.07,3.07,0,0,1,.243-1.58,2.423,2.423,0,0,1,.5-.718c.15.872.3,1.711.45,2.5.109.616.225,1.2.331,1.766a4.374,4.374,0,0,1-1.985-.5m5.276-1.607a2.21,2.21,0,0,1-1.1,1.562,4.129,4.129,0,0,1-1.812.532c-.112-.58-.237-1.188-.371-1.822-.177-.836-.357-1.735-.526-2.668a2.3,2.3,0,0,1,3.223.414,2.377,2.377,0,0,1,.186.28,2.526,2.526,0,0,1,.394,1.7Z" fill="#fff" opacity="0.55"/>
        <path id="Path_201589" data-name="Path 201589" d="M169.654,119.876a4.7,4.7,0,0,0-2.35-2.454,4.615,4.615,0,0,0-3.112-.249,4.76,4.76,0,0,0-1.466.681c-.044-.253-.088-.5-.132-.763-.081-.488-.153-.987-.221-1.489a11.326,11.326,0,0,0,1.273-1.408,8.089,8.089,0,0,0,1.818-4.167c.465-4.6-1.005-6.808-2.2-6.694-2.607.394-2.261,4.846-1.748,9.461a13.839,13.839,0,0,1-1.122,1.25l-.73.717a13.107,13.107,0,0,0-3.081,4.678,5.837,5.837,0,0,0,.27,4.583,6.233,6.233,0,0,0,3.262,2.843,9.057,9.057,0,0,0,3.842.58c.124.658.24,1.3.329,1.9a3.048,3.048,0,0,1-1.166,3.532,1.964,1.964,0,0,1-1.914-.146.912.912,0,0,0,.156.02,1.345,1.345,0,1,0-1.3-1.384v.006a1.472,1.472,0,0,0,.013.175h0l.006.017a1.345,1.345,0,0,0,.354.77c.036.051.073.1.117.156a2.507,2.507,0,0,0,1.021.724,2.628,2.628,0,0,0,1.707.037,2.5,2.5,0,0,0,1.525-1.513,3.131,3.131,0,0,0,.236-1.209,11.141,11.141,0,0,0-.131-1.276c-.094-.6-.206-1.228-.329-1.871a8.566,8.566,0,0,0,3.144-1.08,5.033,5.033,0,0,0,2.193-2.912,5.267,5.267,0,0,0-.261-3.514m-5.806-14.842c.526.166.593.882.586,1.34a6.764,6.764,0,0,1-.8,3.121,29.418,29.418,0,0,1-1.607,2.615c-.289-4.617.771-7.411,1.824-7.076Zm-3.263,20.812a5.075,5.075,0,0,1-2.4-2.457,4.148,4.148,0,0,1,.147-3.3,9.916,9.916,0,0,1,2.237-2.908c.215-.2.449-.416.73-.643l.377-.316c.092-.076.183-.151.273-.23q.088.592.173,1.172c.053.345.11.681.165,1.021a4.64,4.64,0,0,0-1.271,5.339,4.748,4.748,0,0,0,.339.681c.088.145.136.219.136.219a7.972,7.972,0,0,1-.16-.982,5,5,0,0,1,.4-2.571,3.937,3.937,0,0,1,.816-1.167c.246,1.42.494,2.784.732,4.079.177,1,.366,1.959.54,2.87a7.144,7.144,0,0,1-3.233-.81m8.591-2.615a3.594,3.594,0,0,1-1.782,2.542,6.754,6.754,0,0,1-2.951.867c-.183-.946-.388-1.935-.6-2.969-.288-1.367-.58-2.824-.856-4.341a3.738,3.738,0,0,1,5.245.668,3.942,3.942,0,0,1,.306.463,4.094,4.094,0,0,1,.642,2.77" fill="#fff" opacity="0.55"/>
        <path id="Path_201590" data-name="Path 201590" d="M354.016,177.215a4.711,4.711,0,0,0-.386-3.376,4.614,4.614,0,0,0-2.329-2.08,4.732,4.732,0,0,0-1.579-.345c.119-.228.236-.455.357-.688.231-.437.475-.878.724-1.319a11.263,11.263,0,0,0,1.866-.351,8.083,8.083,0,0,0,3.968-2.219c3.153-3.381,3.318-6.029,2.3-6.659-2.314-1.263-4.732,2.491-7.115,6.477a13.982,13.982,0,0,1-1.649.316l-1.015.13c-.333.038-.7.1-1.083.178a10.88,10.88,0,0,0-4.2,1.68,5.841,5.841,0,0,0-2.557,3.813,6.238,6.238,0,0,0,.878,4.237,9.067,9.067,0,0,0,2.708,2.786c-.3.6-.6,1.181-.888,1.714a3.051,3.051,0,0,1-3.065,2.108,1.971,1.971,0,0,1-1.437-1.275,1.075,1.075,0,0,0,.113.111,1.345,1.345,0,1,0-.2-1.892h0a1.614,1.614,0,0,0-.1.147h0l-.006.017a1.346,1.346,0,0,0-.183.827c0,.063,0,.125,0,.2a2.519,2.519,0,0,0,.376,1.194,2.636,2.636,0,0,0,1.336,1.062,2.5,2.5,0,0,0,2.13-.282,3.163,3.163,0,0,0,.92-.82,11.113,11.113,0,0,0,.667-1.1c.287-.533.579-1.1.87-1.689a8.568,8.568,0,0,0,3.156,1.042,5.037,5.037,0,0,0,3.508-.992,5.269,5.269,0,0,0,1.918-2.956m4.355-15.331c.319.451-.062,1.061-.344,1.422a6.769,6.769,0,0,1-2.528,2,28.917,28.917,0,0,1-2.861,1.11c2.563-3.851,5.1-5.435,5.733-4.53Zm-15.188,14.6a5.069,5.069,0,0,1-.421-3.406,4.143,4.143,0,0,1,2.111-2.536,9.907,9.907,0,0,1,3.54-.963c.294-.032.61-.059.971-.071l.491-.023c.119,0,.237-.01.357-.018l-.572,1.037c-.167.307-.324.609-.486.913a4.761,4.761,0,0,0-4.384,4.231c-.017.169-.024.256-.024.256a7.845,7.845,0,0,1,.467-.878,4.986,4.986,0,0,1,1.87-1.808,3.9,3.9,0,0,1,1.355-.436c-.663,1.279-1.291,2.515-1.884,3.69-.465.9-.894,1.782-1.306,2.613a7.143,7.143,0,0,1-2.085-2.6m8.423,3.114a3.589,3.589,0,0,1-2.956.946,6.741,6.741,0,0,1-2.875-1.094q.639-1.3,1.314-2.73c.6-1.262,1.248-2.6,1.946-3.974a3.739,3.739,0,0,1,3.772,3.7,3.789,3.789,0,0,1-.037.554,4.1,4.1,0,0,1-1.164,2.594" fill="#fff" opacity="0.55"/>
        <path id="Path_201591" data-name="Path 201591" d="M220.952,204.357a4.243,4.243,0,0,0-2.117-2.211,4.143,4.143,0,0,0-2.806-.224,4.3,4.3,0,0,0-1.322.613c-.039-.228-.079-.455-.117-.688-.074-.439-.138-.888-.2-1.341a10.153,10.153,0,0,0,1.148-1.269,7.293,7.293,0,0,0,1.638-3.755c.419-4.146-.906-6.134-1.98-6.032-2.349.357-2.037,4.368-1.574,8.526a12.727,12.727,0,0,1-1.012,1.127l-.657.646c-.218.209-.446.455-.681.719a9.8,9.8,0,0,0-2.1,3.493,5.261,5.261,0,0,0,.244,4.13,5.61,5.61,0,0,0,2.94,2.562,8.159,8.159,0,0,0,3.462.523c.11.594.215,1.172.3,1.714a2.75,2.75,0,0,1-1.051,3.184,1.776,1.776,0,0,1-1.725-.132.967.967,0,0,0,.141.017,1.211,1.211,0,1,0-1.174-1.247h0a1.192,1.192,0,0,0,.011.158h0l.005.016a1.21,1.21,0,0,0,.318.694c.033.046.066.092.106.14a2.269,2.269,0,0,0,.921.652,2.361,2.361,0,0,0,1.537.033,2.245,2.245,0,0,0,1.374-1.363,2.811,2.811,0,0,0,.213-1.09,10.093,10.093,0,0,0-.118-1.15c-.085-.539-.185-1.106-.294-1.685a7.7,7.7,0,0,0,2.833-.974,4.528,4.528,0,0,0,1.975-2.622,4.754,4.754,0,0,0-.234-3.169m-5.232-13.374c.472.15.534.795.529,1.207a6.124,6.124,0,0,1-.725,2.813,26.175,26.175,0,0,1-1.448,2.355c-.259-4.158.7-6.677,1.644-6.375m-2.94,18.754a4.567,4.567,0,0,1-2.16-2.215,3.733,3.733,0,0,1,.133-2.971,8.931,8.931,0,0,1,2.012-2.62c.193-.183.4-.374.658-.579l.339-.285c.082-.068.165-.135.247-.207.051.354.1.707.155,1.055.05.312.1.614.151.92a4.18,4.18,0,0,0-1.145,4.811,4.034,4.034,0,0,0,.3.614l.122.2a7.158,7.158,0,0,1-.144-.885,4.5,4.5,0,0,1,.356-2.316,3.527,3.527,0,0,1,.736-1.053c.221,1.28.444,2.51.659,3.672.16.9.33,1.766.487,2.587a6.419,6.419,0,0,1-2.911-.725m7.741-2.355a3.234,3.234,0,0,1-1.6,2.29,6.074,6.074,0,0,1-2.66.782c-.165-.852-.351-1.744-.544-2.675-.259-1.233-.522-2.545-.771-3.915a3.368,3.368,0,0,1,5,1.02,3.693,3.693,0,0,1,.577,2.5Z" fill="#fff" opacity="0.55"/>
        <path id="Path_201592" data-name="Path 201592" d="M387.74,91.163a4.241,4.241,0,0,0-2.116-2.211,4.146,4.146,0,0,0-2.807-.224,4.318,4.318,0,0,0-1.322.613c-.039-.228-.079-.455-.117-.688-.073-.44-.138-.889-.2-1.341a10.227,10.227,0,0,0,1.147-1.269,7.3,7.3,0,0,0,1.639-3.755c.418-4.146-.907-6.134-1.981-6.032-2.349.357-2.037,4.368-1.574,8.526a12.72,12.72,0,0,1-1.012,1.127l-.657.646c-.217.209-.446.454-.68.719a9.8,9.8,0,0,0-2.1,3.493,5.265,5.265,0,0,0,.243,4.13,5.617,5.617,0,0,0,2.94,2.562,8.161,8.161,0,0,0,3.462.523c.111.594.216,1.172.3,1.714a2.751,2.751,0,0,1-1.05,3.184,1.776,1.776,0,0,1-1.725-.132.937.937,0,0,0,.141.017,1.211,1.211,0,1,0-1.175-1.247v0a1.4,1.4,0,0,0,.011.158h0l.005.016a1.211,1.211,0,0,0,.318.693c.034.047.067.093.107.141a2.266,2.266,0,0,0,.92.652,2.361,2.361,0,0,0,1.537.033,2.246,2.246,0,0,0,1.375-1.363,2.831,2.831,0,0,0,.213-1.09,9.867,9.867,0,0,0-.119-1.15c-.084-.539-.185-1.106-.293-1.685a7.7,7.7,0,0,0,2.83-.974,4.528,4.528,0,0,0,1.975-2.622,4.748,4.748,0,0,0-.234-3.169M382.51,77.789c.471.15.533.795.528,1.207a6.114,6.114,0,0,1-.725,2.813,26.166,26.166,0,0,1-1.447,2.355c-.26-4.158.694-6.677,1.644-6.375m-2.941,18.754a4.567,4.567,0,0,1-2.159-2.216,3.727,3.727,0,0,1,.132-2.97,8.935,8.935,0,0,1,2.013-2.62c.193-.183.4-.374.658-.579l.339-.285c.082-.068.164-.135.247-.207.05.354.1.707.154,1.055.051.312.1.614.151.92a4.284,4.284,0,0,0-.84,5.424l.122.2a7.151,7.151,0,0,1-.143-.885,4.5,4.5,0,0,1,.355-2.317,3.554,3.554,0,0,1,.736-1.052c.221,1.28.445,2.51.66,3.672.16.9.329,1.766.486,2.587a6.431,6.431,0,0,1-2.911-.725m7.741-2.355a3.236,3.236,0,0,1-1.6,2.29,6.078,6.078,0,0,1-2.66.782c-.166-.852-.351-1.744-.545-2.675-.259-1.233-.521-2.545-.771-3.915a3.371,3.371,0,0,1,4.728.605,3.278,3.278,0,0,1,.274.415,3.688,3.688,0,0,1,.577,2.495Z" fill="#fff" opacity="0.55"/>
        <path id="Path_201592-2" data-name="Path 201592" d="M387.74,91.163a4.241,4.241,0,0,0-2.116-2.211,4.146,4.146,0,0,0-2.807-.224,4.318,4.318,0,0,0-1.322.613c-.039-.228-.079-.455-.117-.688-.073-.44-.138-.889-.2-1.341a10.227,10.227,0,0,0,1.147-1.269,7.3,7.3,0,0,0,1.639-3.755c.418-4.146-.907-6.134-1.981-6.032-2.349.357-2.037,4.368-1.574,8.526a12.72,12.72,0,0,1-1.012,1.127l-.657.646c-.217.209-.446.454-.68.719a9.8,9.8,0,0,0-2.1,3.493,5.265,5.265,0,0,0,.243,4.13,5.617,5.617,0,0,0,2.94,2.562,8.161,8.161,0,0,0,3.462.523c.111.594.216,1.172.3,1.714a2.751,2.751,0,0,1-1.05,3.184,1.776,1.776,0,0,1-1.725-.132.937.937,0,0,0,.141.017,1.211,1.211,0,1,0-1.175-1.247v0a1.4,1.4,0,0,0,.011.158h0l.005.016a1.211,1.211,0,0,0,.318.693c.034.047.067.093.107.141a2.266,2.266,0,0,0,.92.652,2.361,2.361,0,0,0,1.537.033,2.246,2.246,0,0,0,1.375-1.363,2.831,2.831,0,0,0,.213-1.09,9.867,9.867,0,0,0-.119-1.15c-.084-.539-.185-1.106-.293-1.685a7.7,7.7,0,0,0,2.83-.974,4.528,4.528,0,0,0,1.975-2.622,4.748,4.748,0,0,0-.234-3.169M382.51,77.789c.471.15.533.795.528,1.207a6.114,6.114,0,0,1-.725,2.813,26.166,26.166,0,0,1-1.447,2.355c-.26-4.158.694-6.677,1.644-6.375m-2.941,18.754a4.567,4.567,0,0,1-2.159-2.216,3.727,3.727,0,0,1,.132-2.97,8.935,8.935,0,0,1,2.013-2.62c.193-.183.4-.374.658-.579l.339-.285c.082-.068.164-.135.247-.207.05.354.1.707.154,1.055.051.312.1.614.151.92a4.284,4.284,0,0,0-.84,5.424l.122.2a7.151,7.151,0,0,1-.143-.885,4.5,4.5,0,0,1,.355-2.317,3.554,3.554,0,0,1,.736-1.052c.221,1.28.445,2.51.66,3.672.16.9.329,1.766.486,2.587a6.431,6.431,0,0,1-2.911-.725m7.741-2.355a3.236,3.236,0,0,1-1.6,2.29,6.078,6.078,0,0,1-2.66.782c-.166-.852-.351-1.744-.545-2.675-.259-1.233-.521-2.545-.771-3.915a3.371,3.371,0,0,1,4.728.605,3.278,3.278,0,0,1,.274.415,3.688,3.688,0,0,1,.577,2.495Z" transform="translate(14.924 203.146) rotate(-41)" fill="#fff" opacity="0.55"/>
      </g>
      <g id="cross" transform="translate(-432.379 -97.84)" opacity="0.2">
        <g id="Group_45835" data-name="Group 45835" transform="translate(432.379 679.781)">
          <g id="Group_45819" data-name="Group 45819" transform="translate(178.62)">
            <g id="Group_45818" data-name="Group 45818">
              <rect id="Rectangle_10185" data-name="Rectangle 10185" width="15.46" height="128.005" fill="#dcdcdc"/>
              <g id="Group_45817" data-name="Group 45817" clip-path="url(#clip-path)">
                <path id="Path_201562" data-name="Path 201562" d="M658.055,807.785,642.6,799.829V679.78h15.087Z" transform="translate(-642.597 -679.781)" fill="#dcdcdc"/>
              </g>
            </g>
          </g>
          <g id="Group_45822" data-name="Group 45822" transform="translate(147.572 28.248)">
            <g id="Group_45821" data-name="Group 45821">
              <rect id="Rectangle_10187" data-name="Rectangle 10187" width="75.834" height="10.866" fill="#dcdcdc"/>
              <g id="Group_45820" data-name="Group 45820" clip-path="url(#clip-path-2)">
                <rect id="Rectangle_10188" data-name="Rectangle 10188" width="75.834" height="10.866" fill="#dcdcdc"/>
              </g>
            </g>
          </g>
          <g id="Group_45825" data-name="Group 45825" transform="translate(233.995 66.764)">
            <g id="Group_45824" data-name="Group 45824">
              <rect id="Rectangle_10190" data-name="Rectangle 10190" width="8.499" height="69.397" fill="#dcdcdc"/>
              <g id="Group_45823" data-name="Group 45823" clip-path="url(#clip-path-3)">
                <path id="Path_201563" data-name="Path 201563" d="M716.267,827.118l-8.5.635v-69.4h8.5Z" transform="translate(-707.768 -758.356)" fill="#dcdcdc"/>
              </g>
            </g>
          </g>
          <g id="Group_45828" data-name="Group 45828" transform="translate(216.507 82.676)">
            <g id="Group_45827" data-name="Group 45827">
              <rect id="Rectangle_10192" data-name="Rectangle 10192" width="42.715" height="6.121" fill="#dcdcdc"/>
              <g id="Group_45826" data-name="Group 45826" clip-path="url(#clip-path-4)">
                <rect id="Rectangle_10193" data-name="Rectangle 10193" width="42.715" height="6.12" transform="translate(0 0.001)" fill="#dcdcdc"/>
              </g>
            </g>
          </g>
          <g id="Group_45831" data-name="Group 45831" transform="translate(128.485 56.623)">
            <g id="Group_45830" data-name="Group 45830">
              <rect id="Rectangle_10195" data-name="Rectangle 10195" width="8.499" height="66.863" fill="#dcdcdc"/>
              <g id="Group_45829" data-name="Group 45829" clip-path="url(#clip-path-5)">
                <path id="Path_201564" data-name="Path 201564" d="M592.091,810.861l-8.5,2.424V746.421h8.5Z" transform="translate(-583.593 -746.421)" fill="#dcdcdc"/>
              </g>
            </g>
          </g>
          <g id="Group_45834" data-name="Group 45834" transform="translate(110.996 72.536)">
            <g id="Group_45833" data-name="Group 45833">
              <rect id="Rectangle_10197" data-name="Rectangle 10197" width="42.717" height="6.12" fill="#dcdcdc"/>
              <g id="Group_45832" data-name="Group 45832" clip-path="url(#clip-path-6)">
                <rect id="Rectangle_10198" data-name="Rectangle 10198" width="42.715" height="6.12" fill="#dcdcdc"/>
              </g>
            </g>
          </g>
          <path id="Path_201565" data-name="Path 201565" d="M797.6,849.666v2.6H441.527c24.186-36.9,44.655-46.03,60.074-46.1,17.4-.085,20.993,11.434,43.5,14.185,32.469,3.973,40.3-18.142,73.762-17.972,34.172.184,36.458,23.306,67.138,20.8,28.086-2.3,17.2-3.04,49.174-6.142C753.946,815.212,787.725,845.44,797.6,849.666Z" transform="translate(-433.754 -698.209)" fill="#dcdcdc"/>
          <path id="Path_201566" data-name="Path 201566" d="M806.379,861.093h-374" transform="translate(-432.379 -707.034)" fill="#dcdcdc"/>
        </g>
      </g>
    </g>
  </g>
</svg>
